<svg width="441" height="348" viewBox="0 0 441 348" fill="none" xmlns="http://www.w3.org/2000/svg">
<g filter="url(#filter0_f_102_2)">
<path d="M410 88C387.501 64.1756 309.664 169.589 333.832 52.7945C358 -64 149.394 63.9166 149.629 100.443C149.863 136.97 -96.0453 142.471 53.116 278.324C202.277 414.177 187.478 187.814 261.765 264.356C336.052 340.899 444.829 418.632 436 198C436 198 440.307 120.093 410 88Z" fill="#D267CB"/>
<path d="M410 88L410.364 87.6567L410.364 87.6567L410 88ZM436 198L435.501 197.972C435.5 197.988 435.5 198.004 435.5 198.02L436 198ZM261.765 264.356L262.123 264.008L262.123 264.008L261.765 264.356ZM53.116 278.324L53.4527 277.954L53.4527 277.954L53.116 278.324ZM333.342 52.6931C330.318 67.307 328.885 78.4685 328.743 86.8544C328.602 95.226 329.747 100.899 331.948 104.48C334.178 108.109 337.461 109.535 341.386 109.478C345.27 109.421 349.796 107.917 354.623 105.716C359.459 103.511 364.656 100.579 369.886 97.6217C375.125 94.6589 380.399 91.6693 385.42 89.3255C390.446 86.9793 395.174 85.3019 399.32 84.9355C403.448 84.5707 406.957 85.5061 409.636 88.3433L410.364 87.6567C407.418 84.5378 403.573 83.5558 399.232 83.9394C394.91 84.3214 390.054 86.0583 384.997 88.4194C379.934 90.7829 374.624 93.7935 369.394 96.7512C364.155 99.7139 358.998 102.623 354.208 104.806C349.411 106.993 345.04 108.424 341.372 108.478C337.744 108.53 334.819 107.241 332.799 103.956C330.75 100.622 329.603 95.1831 329.743 86.8712C329.883 78.5737 331.304 67.4805 334.322 52.8958L333.342 52.6931ZM409.636 88.3433C424.669 104.261 431.158 131.612 433.869 155.092C435.222 166.814 435.63 177.537 435.699 185.33C435.734 189.226 435.685 192.389 435.626 194.576C435.597 195.67 435.565 196.52 435.541 197.096C435.529 197.384 435.519 197.604 435.512 197.751C435.508 197.825 435.506 197.88 435.504 197.917C435.503 197.936 435.502 197.95 435.501 197.959C435.501 197.964 435.501 197.967 435.501 197.969C435.501 197.97 435.501 197.971 435.501 197.972C435.501 197.972 435.501 197.972 436 198C436.499 198.028 436.499 198.027 436.499 198.027C436.499 198.026 436.499 198.025 436.499 198.024C436.5 198.021 436.5 198.017 436.5 198.013C436.501 198.003 436.501 197.988 436.502 197.969C436.504 197.931 436.507 197.875 436.511 197.8C436.518 197.65 436.528 197.428 436.541 197.138C436.565 196.557 436.596 195.702 436.626 194.603C436.684 192.405 436.734 189.23 436.699 185.321C436.63 177.503 436.22 166.744 434.862 154.977C432.149 131.481 425.639 103.832 410.364 87.6567L409.636 88.3433ZM435.5 198.02C437.707 253.156 432.559 289.571 422.491 312.006C417.46 323.215 411.211 330.912 404.059 335.72C396.911 340.526 388.824 342.471 380.071 342.119C362.534 341.414 342.348 331.489 321.86 316.899C301.389 302.319 280.685 283.133 262.123 264.008L261.406 264.705C279.988 283.851 300.739 303.084 321.28 317.713C341.806 332.331 362.191 342.401 380.031 343.118C388.966 343.477 397.269 341.49 404.617 336.55C411.962 331.612 418.317 323.749 423.403 312.416C433.569 289.765 438.708 253.16 436.5 197.98L435.5 198.02ZM262.123 264.008C252.807 254.409 244.826 249.492 237.687 248.062C230.519 246.627 224.281 248.721 218.504 252.949C212.745 257.163 207.416 263.518 202.032 270.659C196.629 277.824 191.183 285.763 185.129 293.268C173.034 308.263 158.7 321.28 138.176 322.191C117.63 323.104 90.7142 311.891 53.4527 277.954L52.7794 278.694C90.0985 312.683 117.269 324.121 138.22 323.19C159.195 322.259 173.771 308.942 185.907 293.896C191.969 286.38 197.469 278.371 202.83 271.261C208.21 264.126 213.464 257.876 219.095 253.756C224.708 249.648 230.666 247.676 237.491 249.043C244.344 250.415 252.151 255.169 261.406 264.705L262.123 264.008ZM53.4527 277.954C16.182 244.009 3.75074 218.341 5.79907 198.405C7.84599 178.482 24.382 164.026 45.7609 152.577C67.1235 141.136 93.1223 132.799 113.848 125.01C124.192 121.123 133.237 117.367 139.692 113.428C142.92 111.459 145.527 109.428 147.327 107.29C149.132 105.147 150.144 102.874 150.129 100.44L149.129 100.446C149.143 102.578 148.262 104.628 146.562 106.646C144.859 108.668 142.353 110.633 139.171 112.575C132.805 116.459 123.842 120.187 113.496 124.074C92.8407 131.836 66.7289 140.213 45.2888 151.695C23.865 163.169 6.9063 177.844 4.8043 198.302C2.70371 218.748 15.4694 244.712 52.7794 278.694L53.4527 277.954ZM150.129 100.44C150.115 98.27 150.879 95.7131 152.368 92.8355C153.856 89.9629 156.049 86.8036 158.852 83.4383C164.457 76.7079 172.465 69.1945 182.022 61.5548C201.137 46.2763 226.399 30.5347 250.909 19.5799C263.164 14.1027 275.219 9.8273 286.216 7.40236C297.219 4.97591 307.124 4.41082 315.097 6.31666C323.049 8.21729 329.072 12.5705 332.39 20.0144C335.72 27.4869 336.353 38.1424 333.342 52.6931L334.322 52.8958C337.353 38.2479 336.754 27.352 333.303 19.6074C329.839 11.8343 323.532 7.30473 315.329 5.34405C307.148 3.38858 297.075 3.98361 286 6.42582C274.919 8.86954 262.797 13.1713 250.501 18.667C225.911 29.6578 200.576 45.4445 181.398 60.7737C171.81 68.4378 163.747 75.9981 158.084 82.7983C155.252 86.1984 153.011 89.4186 151.48 92.3757C149.952 95.3277 149.113 98.0507 149.129 100.446L150.129 100.44Z" fill="#D267CB"/>
</g>
<defs>
<filter id="filter0_f_102_2" x="0.584991" y="0.176453" width="440.421" height="346.983" filterUnits="userSpaceOnUse" color-interpolation-filters="sRGB">
<feFlood flood-opacity="0" result="BackgroundImageFix"/>
<feBlend mode="normal" in="SourceGraphic" in2="BackgroundImageFix" result="shape"/>
<feGaussianBlur stdDeviation="2" result="effect1_foregroundBlur_102_2"/>
</filter>
</defs>
</svg>
